<?xml version="1.0" encoding="iso-8859-1"?>
<!-- Uploaded to: SVG Repo, www.svgrepo.com, Generator: SVG Repo Mixer Tools -->
<svg height="800px" width="800px" version="1.1" id="Capa_1" xmlns="http://www.w3.org/2000/svg" xmlns:xlink="http://www.w3.org/1999/xlink" 
	 viewBox="0 0 331.494 331.494" xml:space="preserve">
<g>
	<g>
		<path style="fill:#010002;" d="M101.182,117.314H299.11c5.319,0,9.627-4.308,9.627-9.627c0-5.319-4.308-9.627-9.627-9.627H101.182
			c-5.319,0-9.627,4.308-9.627,9.627C91.555,113.006,95.863,117.314,101.182,117.314z"/>
		<path style="fill:#010002;" d="M292.551,139.897c-17.661,0-32.553,11.759-37.328,27.875c-4.765,2.045-9.404,4.863-13.88,8.664
			c-1.447,1.229-2.91,2.513-4.384,3.829c10.813-26.608,37.742-44.502,53.031-52.873c5.972-3.269,5.526-5.461-1.284-5.461H113.888
			c-6.804,0-10.122,5.058-7.408,11.302l8.354,19.216c-4.863-5.885-20.897-24.139-27.739-27.968
			c-15.371-8.61-25.237-12.842-34.75-15.121c0.321,6.277-0.06,12.575-1.235,18.808c13.929,2.975,26.14,8.79,40.706,24.106
			c18.346,19.292,40.255,55.587,62.283,71.464c41.353,29.806,69.441-16.992,100.862-34.821
			c4.449,16.616,19.564,28.865,37.584,28.865c21.512,0,38.949-17.438,38.949-38.949C331.5,157.335,314.062,139.897,292.551,139.897z
			 M155.774,203.105c-3.639-3.209-6.929-6.712-10.089-10.318h75.255c0.816,0,1.621-0.087,2.42-0.239
			C203.372,210.17,180.984,225.334,155.774,203.105z M291.751,201.326c-10.807,0-19.689-7.925-21.337-18.27
			c5.983-1.055,12.162-0.647,18.64,1.969c10.356,4.183,14.816-12.57,4.601-16.692c-5.863-2.366-11.58-3.655-17.177-4.074
			c3.922-3.894,9.312-6.304,15.273-6.304c11.977,0,21.686,9.709,21.686,21.686C313.437,191.617,303.728,201.326,291.751,201.326z"/>
		<path style="fill:#010002;" d="M33.912,125.603c1.207-6.255,1.479-12.477,0.805-18.71c-6.587-0.468-14.12-0.734-23.807-1.311
			c-11.025-0.658-15.605,14.99-4.601,16.692C16.763,123.895,25.759,124.711,33.912,125.603z"/>
	</g>
</g>
</svg>